<svg width="5" height="5" viewBox="0 0 5 5" fill="none" xmlns="http://www.w3.org/2000/svg">
<path d="M37.5163 3.08493C39.3504 -0.631293 44.6496 -0.631301 46.4837 3.08493L55.5313 21.4174C56.2596 22.8931 57.6674 23.9159 59.296 24.1526L79.527 27.0923C83.6281 27.6882 85.2657 32.7281 82.2981 35.6208L67.6588 49.8906C66.4803 51.0393 65.9426 52.6943 66.2208 54.3163L69.6767 74.4655C70.3772 78.5501 66.09 81.6649 62.4219 79.7364L44.3267 70.2232C42.8701 69.4574 41.1299 69.4574 39.6733 70.2232L21.5781 79.7364C17.91 81.6649 13.6228 78.5501 14.3234 74.4655L17.7792 54.3163C18.0574 52.6943 17.5197 51.0393 16.3412 49.8906L1.70193 35.6208C-1.26566 32.7281 0.371886 27.6882 4.47299 27.0923L24.704 24.1526C26.3326 23.9159 27.7404 22.8931 28.4687 21.4174L37.5163 3.08493Z" fill="#FFCD1A"/>
</svg>
